# xmcd
#
# Track frame offsets:
# 150
# 14944
# 32394
# 48965
# 69755
# 86359
# 104551
# 120545
# 136184
# 151552
# 163873
#
# Disc length: 2407 seconds
#
#
# Revision: 0
# Processed by: cddbd v1.5.1PL0 Copyright (c) Steve Scherf et al.
# Submitted via: FreeRIP 2.931 
#
DISCID=7f09650b
DTITLE=Kent Mayhew - Trail of the Heart
DYEAR=2004
DGENRE=Country
TTITLE0=Austin
TTITLE1=Floating Down the Guadalupe
TTITLE2=Roll Away
TTITLE3=I'll Never Drink Again
TTITLE4=Lone Star State of Mind
TTITLE5=Devil's Cove
TTITLE6=Sweet Cherry Monie
TTITLE7=Slipping Away
TTITLE8=Come to San Antonio With Me
TTITLE9=Let It Be Us Tonight
TTITLE10=Trail of the Heart
EXTD=
EXTT0=
EXTT1=
EXTT2=
EXTT3=
EXTT4=
EXTT5=
EXTT6=
EXTT7=
EXTT8=
EXTT9=
EXTT10=
PLAYORDER=
